<?xml version="1.0" encoding="utf-8"?>
<!-- Generator: Adobe Illustrator 16.0.0, SVG Export Plug-In . SVG Version: 6.00 Build 0)  -->
<!DOCTYPE svg PUBLIC "-//W3C//DTD SVG 1.1//EN" "http://www.w3.org/Graphics/SVG/1.1/DTD/svg11.dtd">
<svg version="1.1" id="Layer_1" xmlns="http://www.w3.org/2000/svg" xmlns:xlink="http://www.w3.org/1999/xlink" x="0px" y="0px"
	 width="100px" height="100px" viewBox="0 0 100 100" enable-background="new 0 0 100 100" xml:space="preserve">
<path d="M14.628,14.626C-4.878,34.131-4.876,65.868,14.63,85.374c19.501,19.503,51.237,19.503,70.741-0.004
	c19.505-19.502,19.503-51.237,0.002-70.738C65.867-4.875,34.131-4.875,14.628,14.626z M79.916,79.916
	C63.421,96.41,36.579,96.412,20.085,79.918c-16.499-16.497-16.496-43.339,0-59.834C36.579,3.59,63.42,3.588,79.918,20.085
	C96.413,36.58,96.411,63.421,79.916,79.916z M70.449,73.121c-21.416,18.875-40.899,0-40.899,0c0-10.892,9.156-19.72,20.449-19.72
	C61.293,53.401,70.449,62.229,70.449,73.121z M31.655,35.52c0-2.535,2.057-4.59,4.589-4.59c2.535,0,4.589,2.056,4.589,4.59
	c0,2.535-2.055,4.592-4.589,4.592C33.712,40.111,31.655,38.055,31.655,35.52z M72.061,35.52c0,4.099-3.322,7.42-7.418,7.42
	c-4.094,0-7.42-3.322-7.42-7.42c0-4.096,3.326-7.418,7.42-7.418C68.738,28.101,72.061,31.423,72.061,35.52z"/>
</svg>
