<?xml version="1.0" encoding="utf-8"?>
<!-- Generator: Adobe Illustrator 16.0.0, SVG Export Plug-In . SVG Version: 6.00 Build 0)  -->
<!DOCTYPE svg PUBLIC "-//W3C//DTD SVG 1.1//EN" "http://www.w3.org/Graphics/SVG/1.1/DTD/svg11.dtd">
<svg version="1.1" id="Layer_1" xmlns="http://www.w3.org/2000/svg" xmlns:xlink="http://www.w3.org/1999/xlink" x="0px" y="0px"
	 width="100px" height="100px" viewBox="0 0 100 100" enable-background="new 0 0 100 100" xml:space="preserve">
<path d="M14.628,14.625C-4.877,34.13-4.875,65.867,14.63,85.373c19.501,19.503,51.237,19.503,70.743-0.004
	c19.504-19.502,19.502-51.237,0.002-70.738C65.867-4.876,34.131-4.876,14.628,14.625z M79.916,79.915
	c-16.495,16.494-43.337,16.496-59.83,0.002c-16.499-16.497-16.497-43.339,0-59.834C36.579,3.589,63.42,3.587,79.918,20.084
	C96.413,36.579,96.411,63.42,79.916,79.915z M27.15,42.882c-1.16,1.083-2.938,1.01-4.005-0.135
	c-1.069-1.143-1.009-2.936,0.135-4.003c5.528-5.17,11.699-2.249,14.211,0c1.166,1.043,1.266,2.835,0.221,4
	c-0.11,0.123-0.228,0.235-0.354,0.334c-1.062,0.841-2.604,0.821-3.646-0.112C33.362,42.655,30.215,40.004,27.15,42.882z
	 M76.624,38.778c1.165,1.043,1.265,2.835,0.224,4c-0.111,0.123-0.23,0.234-0.355,0.334c-1.061,0.841-2.605,0.82-3.646-0.112
	c-0.348-0.312-3.494-2.962-6.562-0.084c-1.159,1.083-2.938,1.009-4.005-0.135s-1.008-2.935,0.134-4.003
	C67.941,33.607,74.111,36.529,76.624,38.778z M72.797,57.808l-45.861-0.062c0,0,0,0-0.001,0c-0.452,0-0.874,0.257-1.123,0.688
	c-0.25,0.43-0.298,0.975-0.124,1.451c3.897,10.725,13.416,17.655,24.246,17.655c10.603,0,20.065-6.896,24.104-17.57
	c0.181-0.479,0.14-1.028-0.11-1.463C73.675,58.069,73.252,57.81,72.797,57.808z M39.361,72.442c-2.49-1.09-4.731-2.559-6.613-4.353
	h6.613V72.442z M39.361,64.979h-9.227v-4.668l9.227,0.012V64.979z M51.943,74.511c-0.688,0.055-1.379,0.09-2.076,0.09
	c-2.484,0-4.891-0.338-7.15-0.965v-5.545h9.227V74.511z M51.943,64.979h-9.227v-4.653l9.227,0.011V64.979z M64.521,69.991
	c-2.672,1.929-5.816,3.318-9.227,4.038v-5.938h9.227V69.991z M64.521,64.979h-9.227v-4.641l9.227,0.014V64.979z M71.309,61.916
	c-0.502,1.08-1.109,2.099-1.791,3.063h-1.639v-4.625l2.329,0.002c0.403,0,0.778,0.19,1.004,0.504
	C71.434,61.176,71.469,61.571,71.309,61.916z"/>
</svg>
