<svg xmlns="http://www.w3.org/2000/svg" xmlns:xlink="http://www.w3.org/1999/xlink" version="1.1" x="0px" y="0px" width="100%" height="100%" viewBox="0 0 100 100" enable-background="new 0 0 100 100" xml:space="preserve"><path d="M14.628 14.626C-4.878 34.131-4.876 65.9 14.6 85.374c19.501 19.5 51.2 19.5 70.741-0.004 c19.505-19.502 19.503-51.237 0.002-70.738C65.867-4.875 34.131-4.875 14.6 14.626z M79.916 79.9 C63.421 96.4 36.6 96.4 20.1 79.918c-16.499-16.497-16.496-43.339 0-59.834C36.579 3.6 63.4 3.6 79.9 20.1 C96.413 36.6 96.4 63.4 79.9 79.916z M70.449 73.121c-21.416 18.875-40.899 0-40.899 0c0-10.892 9.156-19.72 20.449-19.72 C61.293 53.4 70.4 62.2 70.4 73.121z M31.655 35.52c0-2.535 2.057-4.59 4.589-4.59c2.535 0 4.6 2.1 4.6 4.6 c0 2.535-2.055 4.592-4.589 4.592C33.712 40.1 31.7 38.1 31.7 35.52z M72.061 35.52c0 4.099-3.322 7.42-7.418 7.4 c-4.094 0-7.42-3.322-7.42-7.42c0-4.096 3.326-7.418 7.42-7.418C68.738 28.1 72.1 31.4 72.1 35.52z"/></svg>